{"title":"Sherlock Holmes-A Game of Shadows-720p MP4 AAC x264 BRRip 2011-C","uid":7242450,"size":2405356977,"categoryP":"video","categoryS":"hd___movies","magnet":"?xt=urn:btih:f6104b667c7b284a28be6167a7b73c3290f3826d&amp;dn=Sherlock+Holmes-A+Game+of+Shadows-720p+MP4+AAC+x264+BRRip+2011-C&amp;tr=udp%3A%2F%2Ftracker.openbittorrent.com%3A80&amp;tr=udp%3A%2F%2Fopen.demonii.com%3A1337&amp;tr=udp%3A%2F%2Ftracker.coppersurfer.tk%3A6969&amp;tr=udp%3A%2F%2Fexodus.desync.com%3A6969","seeders":1,"leechers":0,"uploader":"Caveman44","files":-1,"time":1336167178,"description":"Source: Sherlock.Holmes.A.Game.of.Shadows.2011.720p.BluRay.x264-UNVEiL\n\nSubs: Arabic, Bosnian, Brazilian, Bulgarian, Croatian, Czech, Danish, Dutch, English (Hearing Impaired), English, Finnish, French, Greek, Hebrew, Hungarian, Indonesian, Persian, Portuguese, Romanian, Servian, Slovenian, Spanish, Swedish, Turkish and Vietnamese.\n\nSample and Screens included.\n\nGeneral\nComplete name                    : Sherlock Holmes-A Game of Shadows-720p MP4 AAC x264 BRRip 2011-CC.mp4\nFormat                           : MPEG-4\nFormat profile                   : Base Media\nCodec ID                         : isom\nFile size                        : 2.21 GiB\nDuration                         : 2h 8mn\nOverall bit rate                 : 2 459 Kbps\nEncoded date                     : UTC 2012-04-29 13:26:07\n\nVideo\nID                               : 1\nFormat                           : AVC\nFormat/Info                      : Advanced Video Codec\nFormat profile                   : &lt;a class=&quot;__cf_email__&quot; href=&quot;/cdn-cgi/l/email-protection&quot; data-cfemail=&quot;d49cbdb3bc9498e7fae5&quot;&gt;[email&amp;#160;protected]&lt;/a&gt;&lt;script cf-hash='f9e31' type=&quot;text/javascript&quot;&gt;\n/* &lt;![CDATA[ */!function(){try{var t=&quot;currentScript&quot;in document?document.currentScript:function(){for(var t=document.getElementsByTagName(&quot;script&quot;),e=t.length;e--;)if(t[e].getAttribute(&quot;cf-hash&quot;))return t[e]}();if(t&amp;&amp;t.previousSibling){var e,r,n,i,c=t.previousSibling,a=c.getAttribute(&quot;data-cfemail&quot;);if(a){for(e=&quot;&quot;,r=parseInt(a.substr(0,2),16),n=2;a.length-n;n+=2)i=parseInt(a.substr(n,2),16)^r,e+=String.fromCharCode(i);e=document.createTextNode(e),c.parentNode.replaceChild(e,c)}}}catch(u){}}();/* ]]&gt; */&lt;/script&gt;\nFormat settings, CABAC           : Yes\nFormat settings, ReFrames        : 5 frames\nCodec ID                         : avc1\nCodec ID/Info                    : Advanced Video Coding\nDuration                         : 2h 8mn\nBit rate mode                    : Variable\nBit rate                         : 2 070 Kbps\nNominal bit rate                 : 2 088 Kbps\nMaximum bit rate                 : 12.6 Mbps\nWidth                            : 1 280 pixels\nHeight                           : 528 pixels\nDisplay aspect ratio             : 2.40:1\nFrame rate mode                  : Variable\nFrame rate                       : 23.976 fps\nMinimum frame rate               : 19.048 fps\nMaximum frame rate               : 24.390 fps\nResolution                       : 24 bits\nColorimetry                      : 4:2:0\nScan type                        : Progressive\nBits/(Pixel*Frame)               : 0.128\nStream size                      : 1.86 GiB (84%)\nWriting library                  : x264 core 112\n\nAudio\nID                               : 2\nFormat                           : AAC\nFormat/Info                      : Advanced Audio Codec\nFormat version                   : Version 4\nFormat profile                   : LC\nFormat settings, SBR             : No\nCodec ID                         : 40\nDuration                         : 2h 8mn\nBit rate mode                    : Variable\nBit rate                         : 384 Kbps\nMaximum bit rate                 : 591 Kbps\nChannel(s)                       : 6 channels\nChannel positions                : Front: L C R, Rear: L R, LFE\nSampling rate                    : 48.0 KHz\nResolution                       : 16 bits\nStream size                      : 353 MiB (16%)\nLanguage                         : English\n\n\nEnjoy...\n\nRequest by @dimekoza.","torrent":{"xt":"urn:btih:f6104b667c7b284a28be6167a7b73c3290f3826d","amp;dn":"Sherlock+Holmes-A+Game+of+Shadows-720p+MP4+AAC+x264+BRRip+2011-C","amp;tr":["udp%3A%2F%2Ftracker.openbittorrent.com%3A80","udp%3A%2F%2Fopen.demonii.com%3A1337","udp%3A%2F%2Ftracker.coppersurfer.tk%3A6969","udp%3A%2F%2Fexodus.desync.com%3A6969"],"infoHash":"f6104b667c7b284a28be6167a7b73c3290f3826d","infoHashBuffer":{"type":"Buffer","data":[246,16,75,102,124,123,40,74,40,190,97,103,167,183,60,50,144,243,130,109]},"announce":[],"urlList":[]}}